<?xml version="1.0" encoding="iso-8859-1"?>
<!-- Generator: Adobe Illustrator 19.0.0, SVG Export Plug-In . SVG Version: 6.00 Build 0)  -->
<svg version="1.1" id="Capa_1" xmlns="http://www.w3.org/2000/svg" xmlns:xlink="http://www.w3.org/1999/xlink" x="0px" y="0px"
	 viewBox="0 0 480 480" style="enable-background:new 0 0 480 480;" xml:space="preserve">
<g>
	<g>
		<rect x="32" y="196" style="fill:#FFE0B1;" width="416" height="248"/>
	</g>
	<g>
		<rect x="72" y="276" style="fill:#51DBFF;" width="64" height="104"/>
	</g>
	<g>
		<polygon style="fill:#B2F3FF;" points="72,276 136,340 136,380 72,316 		"/>
	</g>
	<g>
		<path style="fill:#7E5C62;" d="M296,260H184c-8.82,0-16,7.176-16,16v168c0,4.418,3.578,8,8,8h128c4.422,0,8-3.582,8-8V276
			C312,267.176,304.82,260,296,260z"/>
	</g>
	<g>
		<g>
			<path style="fill:#5C546A;" d="M168,444h72V260h-56c-8.837,0-16,7.163-16,16V444z"/>
		</g>
	</g>
	<g>
		<path style="fill:#FF4F19;" d="M400,196c0,17.673,14.327,32,32,32s32-14.327,32-32L435.716,47.509
			C433.56,36.19,423.663,28,412.14,28H67.86c-11.523,0-21.42,8.19-23.576,19.509L16,196c0,17.673,14.327,32,32,32s32-14.327,32-32
			c0,17.673,14.327,32,32,32s32-14.327,32-32c0,17.673,14.327,32,32,32s32-14.327,32-32c0,17.673,14.327,32,32,32s32-14.327,32-32
			c0,17.673,14.327,32,32,32s32-14.327,32-32c0,17.673,14.327,32,32,32S400,213.673,400,196z"/>
	</g>
	<g>
		<g>
			<path style="fill:#5C546A;" d="M472,452H8c-4.422,0-8-3.582-8-8s3.578-8,8-8h464c4.422,0,8,3.582,8,8S476.422,452,472,452z"/>
		</g>
	</g>
	<g>
		<path style="fill:#E7001E;" d="M208,196.001C208.001,213.673,222.327,228,240,228s31.999-14.326,32-31.999L268,28h-56L208,196.001
			z"/>
	</g>
	<g>
		<path style="fill:#E7001E;" d="M80,196l-0.912,7.292C79.639,200.94,80,198.519,80,196z"/>
	</g>
	<g>
		<path style="fill:#E7001E;" d="M144,196L144,196l11.5-168H101L80,196c0,17.673,14.327,32,32,32S144,213.673,144,196z"/>
	</g>
	<g>
		<path style="fill:#E7001E;" d="M400,196c0,2.519,0.361,4.94,0.912,7.292L400,196z"/>
	</g>
	<g>
		<path style="fill:#E7001E;" d="M336,196.005c0.003,17.67,14.328,31.995,32,31.995c17.673,0,32-14.327,32-32L379,28h-54.5
			L336,196.005z"/>
	</g>
	<g>
		<path style="fill:#7E5C62;" d="M142.4,260H65.6c-5.302,0-9.6,3.582-9.6,8v120c0,4.418,4.298,8,9.6,8h76.8c5.302,0,9.6-3.582,9.6-8
			V268C152,263.582,147.702,260,142.4,260z M136,276v24H72v-24H136z M72,380v-64h64v64H72z"/>
	</g>
	<g>
		<rect x="344" y="276" style="fill:#51DBFF;" width="64" height="104"/>
	</g>
	<g>
		<polygon style="fill:#B2F3FF;" points="344,276 408,340 408,380 344,316 		"/>
	</g>
	<g>
		<path style="fill:#7E5C62;" d="M414.4,260h-76.8c-5.302,0-9.6,3.582-9.6,8v120c0,4.418,4.298,8,9.6,8h76.8
			c5.302,0,9.6-3.582,9.6-8V268C424,263.582,419.702,260,414.4,260z M408,276v24h-64v-24H408z M344,380v-64h64v64H344z"/>
	</g>
	<g>
		<path style="fill:#51DBFF;" d="M223,380h-38c-0.552,0-1-0.448-1-1V277c0-0.552,0.448-1,1-1h38c0.552,0,1,0.448,1,1v102
			C224,379.552,223.552,380,223,380z"/>
	</g>
	<g>
		<polygon style="fill:#B2F3FF;" points="224,324 184,284 184,324 224,364 		"/>
	</g>
	<g>
		<path style="fill:#51DBFF;" d="M295,380h-38c-0.552,0-1-0.448-1-1V277c0-0.552,0.448-1,1-1h38c0.552,0,1,0.448,1,1v102
			C296,379.552,295.552,380,295,380z"/>
	</g>
	<g>
		<polygon style="fill:#B2F3FF;" points="296,324 256,284 256,324 296,364 		"/>
	</g>
</g>
<g>
</g>
<g>
</g>
<g>
</g>
<g>
</g>
<g>
</g>
<g>
</g>
<g>
</g>
<g>
</g>
<g>
</g>
<g>
</g>
<g>
</g>
<g>
</g>
<g>
</g>
<g>
</g>
<g>
</g>
</svg>
